<svg width="208" height="36" viewBox="0 0 208 36" fill="none" xmlns="http://www.w3.org/2000/svg">
<g clip-path="url(#clip0_604_41)" filter="url(#filter0_d_604_41)">
<g filter="url(#filter1_di_604_41)">
<mask id="path-1-inside-1_604_41" fill="white">
<path d="M64.277 22.6148C64.277 23.0899 64.1929 23.5997 64.0246 24.1441C63.8662 24.6885 63.599 25.1934 63.2228 25.6586C62.8566 26.1238 62.3765 26.5148 61.7826 26.8316C61.1887 27.1384 60.4611 27.2919 59.5999 27.2919H44.9451C44.6679 27.2919 44.4105 27.2424 44.173 27.1434C43.9354 27.0444 43.7275 26.9108 43.5494 26.7425C43.3811 26.5643 43.2475 26.3565 43.1485 26.1189C43.0495 25.8813 43 25.624 43 25.3468V7.94507C43 7.67781 43.0495 7.4254 43.1485 7.18783C43.2475 6.95026 43.3811 6.74239 43.5494 6.56422C43.7275 6.38605 43.9354 6.24746 44.173 6.14848C44.4105 6.04949 44.6679 6 44.9451 6H57.8627C58.3379 6 58.8476 6.08414 59.3921 6.25241C59.9365 6.42069 60.4413 6.6929 60.9066 7.06905C61.3817 7.4353 61.7727 7.91538 62.0795 8.50929C62.3963 9.10321 62.5547 9.83076 62.5547 10.6919V11.4195C62.5547 12.1025 62.4408 12.8399 62.2132 13.6318C61.9855 14.4138 61.6193 15.1562 61.1144 15.859C61.55 16.1263 61.9558 16.448 62.332 16.8241C62.718 17.2003 63.0546 17.6358 63.3416 18.1307C63.6287 18.6257 63.8563 19.1849 64.0246 19.8085C64.1929 20.4321 64.277 21.1201 64.277 21.8724V22.6148ZM60.4166 21.8724C60.4166 21.3676 60.3374 20.9172 60.179 20.5212C60.0206 20.1154 59.7979 19.7689 59.5109 19.4819C59.2238 19.1948 58.8773 18.9771 58.4715 18.8286C58.0657 18.6702 57.6103 18.591 57.1055 18.591H48.4046V14.7009H55.3683C55.8731 14.7009 56.3285 14.6266 56.7343 14.4781C57.1401 14.3198 57.4866 14.097 57.7737 13.81C58.0607 13.5229 58.2785 13.1814 58.427 12.7855C58.5853 12.3796 58.6645 11.9243 58.6645 11.4195V10.6919C58.6645 10.1376 58.3973 9.86045 57.8627 9.86045H46.8605V23.4314H59.5999C59.6692 23.4314 59.7534 23.4265 59.8524 23.4166C59.9513 23.4067 60.0404 23.377 60.1196 23.3275C60.1988 23.278 60.2681 23.1939 60.3275 23.0751C60.3869 22.9563 60.4166 22.793 60.4166 22.5851V21.8724Z"/>
<path d="M76.9274 13.6021L83.4308 6H88.7018L79.5407 16.6756L88.6424 27.2919H83.4011L76.9274 19.7491L70.4834 27.2919H65.2273L74.3142 16.6756L65.1976 6H70.4241L76.9274 13.6021Z"/>
<path d="M106.222 21.8724C106.222 22.5356 106.138 23.1345 105.97 23.669C105.802 24.1936 105.579 24.6588 105.302 25.0647C105.025 25.4606 104.703 25.8021 104.337 26.0892C103.97 26.3664 103.584 26.594 103.179 26.7722C102.783 26.9504 102.377 27.084 101.961 27.1731C101.555 27.2523 101.169 27.2919 100.803 27.2919H90.3499V23.4314H100.773C101.298 23.4314 101.694 23.2978 101.961 23.0305C102.228 22.7633 102.362 22.3772 102.362 21.8724C102.312 20.8429 101.793 20.3282 100.803 20.3282H94.8191C93.9679 20.3282 93.2453 20.1797 92.6513 19.8828C92.0574 19.5858 91.5724 19.2146 91.1963 18.7692C90.83 18.3237 90.5627 17.8437 90.3945 17.3289C90.2361 16.8142 90.1569 16.3341 90.1569 15.8887C90.1569 15.0275 90.3103 14.3049 90.6172 13.7209C90.924 13.127 91.3101 12.6469 91.7753 12.2807C92.2406 11.9144 92.7454 11.6521 93.2898 11.4937C93.8342 11.3254 94.344 11.2413 94.8191 11.2413H104.307V15.1018H94.8488C94.6509 15.1018 94.4925 15.1265 94.3737 15.176C94.2648 15.2156 94.1807 15.275 94.1213 15.3542C94.0718 15.4235 94.0421 15.5026 94.0322 15.5917C94.0223 15.6709 94.0174 15.7501 94.0174 15.8293C94.0272 15.9877 94.0569 16.1114 94.1064 16.2005C94.1559 16.2896 94.2153 16.3539 94.2846 16.3935C94.3638 16.4331 94.4479 16.4579 94.537 16.4678C94.636 16.4678 94.73 16.4678 94.8191 16.4678H100.803C101.793 16.4678 102.634 16.6459 103.327 17.0023C104.02 17.3586 104.579 17.809 105.005 18.3534C105.43 18.888 105.737 19.472 105.925 20.1055C106.123 20.739 106.222 21.328 106.222 21.8724Z"/>
<path d="M123.268 15.1018H116.527V27.2919H112.622V15.1018H107.603V11.2413H112.622V6H116.527V11.2413H123.268V15.1018Z"/>
<path d="M143.208 21.8724C143.208 22.5356 143.124 23.1345 142.956 23.669C142.788 24.1936 142.565 24.6588 142.288 25.0647C142.011 25.4606 141.689 25.8021 141.323 26.0892C140.956 26.3664 140.57 26.594 140.165 26.7722C139.769 26.9504 139.363 27.084 138.947 27.1731C138.541 27.2523 138.155 27.2919 137.789 27.2919H130.825C130.291 27.2919 129.707 27.1978 129.073 27.0098C128.44 26.8217 127.851 26.5148 127.306 26.0892C126.772 25.6537 126.321 25.0944 125.955 24.4114C125.599 23.7185 125.421 22.8722 125.421 21.8724V16.6459C125.421 15.6561 125.599 14.8196 125.955 14.1366C126.321 13.4437 126.772 12.8845 127.306 12.4588C127.851 12.0233 128.44 11.7115 129.073 11.5234C129.707 11.3353 130.291 11.2413 130.825 11.2413H137.789C138.779 11.2413 139.62 11.4195 140.313 11.7758C141.006 12.1322 141.565 12.5826 141.991 13.127C142.417 13.6615 142.723 14.2455 142.911 14.879C143.109 15.5125 143.208 16.1015 143.208 16.6459V21.8724ZM139.348 16.6756C139.348 16.1411 139.214 15.7452 138.947 15.4878C138.68 15.2304 138.294 15.1018 137.789 15.1018H130.855C130.34 15.1018 129.949 15.2354 129.682 15.5026C129.415 15.76 129.281 16.1411 129.281 16.6459V21.8724C129.281 22.3772 129.415 22.7633 129.682 23.0305C129.949 23.2978 130.34 23.4314 130.855 23.4314H137.789C138.314 23.4314 138.705 23.2978 138.962 23.0305C139.219 22.7633 139.348 22.3772 139.348 21.8724V16.6756Z"/>
<path d="M160.551 15.1018H151.865C151.34 15.1018 150.944 15.2354 150.677 15.5026C150.41 15.76 150.276 16.1411 150.276 16.6459V27.2919H146.416V16.6459C146.416 15.9827 146.5 15.3888 146.668 14.8642C146.836 14.3396 147.059 13.8793 147.336 13.4833C147.623 13.0775 147.95 12.736 148.316 12.4588C148.682 12.1718 149.063 11.9392 149.459 11.761C149.865 11.5828 150.271 11.4541 150.677 11.3749C151.093 11.2858 151.479 11.2413 151.835 11.2413H160.551V15.1018Z"/>
<path d="M180.313 16.5568C180.313 17.0914 180.219 17.6704 180.031 18.2941C179.843 18.9078 179.536 19.4819 179.111 20.0164C178.695 20.541 178.145 20.9815 177.462 21.3379C176.789 21.6942 175.968 21.8724 174.998 21.8724H168.034V18.205H174.998C175.522 18.205 175.928 18.0466 176.215 17.7298C176.502 17.4032 176.646 17.0023 176.646 16.5272C176.646 16.0223 176.483 15.6264 176.156 15.3393C175.839 15.0523 175.453 14.9087 174.998 14.9087H168.034C167.509 14.9087 167.104 15.0721 166.817 15.3987C166.53 15.7155 166.386 16.1114 166.386 16.5865V21.9763C166.386 22.4911 166.544 22.8919 166.861 23.179C167.188 23.4661 167.589 23.6096 168.064 23.6096H174.998V27.2919H168.034C167.5 27.2919 166.92 27.1978 166.297 27.0098C165.683 26.8217 165.109 26.5198 164.575 26.104C164.05 25.6784 163.609 25.129 163.253 24.4559C162.897 23.7729 162.719 22.9464 162.719 21.9763V16.5568C162.719 16.0223 162.813 15.4482 163.001 14.8345C163.189 14.2109 163.491 13.6368 163.906 13.1121C164.332 12.5776 164.881 12.1322 165.554 11.7758C166.237 11.4195 167.064 11.2413 168.034 11.2413H174.998C175.532 11.2413 176.106 11.3353 176.72 11.5234C177.344 11.7115 177.918 12.0183 178.442 12.444C178.977 12.8597 179.422 13.4091 179.779 14.0921C180.135 14.7652 180.313 15.5868 180.313 16.5568Z"/>
</mask>
<path d="M64.277 22.6148C64.277 23.0899 64.1929 23.5997 64.0246 24.1441C63.8662 24.6885 63.599 25.1934 63.2228 25.6586C62.8566 26.1238 62.3765 26.5148 61.7826 26.8316C61.1887 27.1384 60.4611 27.2919 59.5999 27.2919H44.9451C44.6679 27.2919 44.4105 27.2424 44.173 27.1434C43.9354 27.0444 43.7275 26.9108 43.5494 26.7425C43.3811 26.5643 43.2475 26.3565 43.1485 26.1189C43.0495 25.8813 43 25.624 43 25.3468V7.94507C43 7.67781 43.0495 7.4254 43.1485 7.18783C43.2475 6.95026 43.3811 6.74239 43.5494 6.56422C43.7275 6.38605 43.9354 6.24746 44.173 6.14848C44.4105 6.04949 44.6679 6 44.9451 6H57.8627C58.3379 6 58.8476 6.08414 59.3921 6.25241C59.9365 6.42069 60.4413 6.6929 60.9066 7.06905C61.3817 7.4353 61.7727 7.91538 62.0795 8.50929C62.3963 9.10321 62.5547 9.83076 62.5547 10.6919V11.4195C62.5547 12.1025 62.4408 12.8399 62.2132 13.6318C61.9855 14.4138 61.6193 15.1562 61.1144 15.859C61.55 16.1263 61.9558 16.448 62.332 16.8241C62.718 17.2003 63.0546 17.6358 63.3416 18.1307C63.6287 18.6257 63.8563 19.1849 64.0246 19.8085C64.1929 20.4321 64.277 21.1201 64.277 21.8724V22.6148ZM60.4166 21.8724C60.4166 21.3676 60.3374 20.9172 60.179 20.5212C60.0206 20.1154 59.7979 19.7689 59.5109 19.4819C59.2238 19.1948 58.8773 18.9771 58.4715 18.8286C58.0657 18.6702 57.6103 18.591 57.1055 18.591H48.4046V14.7009H55.3683C55.8731 14.7009 56.3285 14.6266 56.7343 14.4781C57.1401 14.3198 57.4866 14.097 57.7737 13.81C58.0607 13.5229 58.2785 13.1814 58.427 12.7855C58.5853 12.3796 58.6645 11.9243 58.6645 11.4195V10.6919C58.6645 10.1376 58.3973 9.86045 57.8627 9.86045H46.8605V23.4314H59.5999C59.6692 23.4314 59.7534 23.4265 59.8524 23.4166C59.9513 23.4067 60.0404 23.377 60.1196 23.3275C60.1988 23.278 60.2681 23.1939 60.3275 23.0751C60.3869 22.9563 60.4166 22.793 60.4166 22.5851V21.8724Z" fill="#333333"/>
<path d="M76.9274 13.6021L83.4308 6H88.7018L79.5407 16.6756L88.6424 27.2919H83.4011L76.9274 19.7491L70.4834 27.2919H65.2273L74.3142 16.6756L65.1976 6H70.4241L76.9274 13.6021Z" fill="#333333"/>
<path d="M106.222 21.8724C106.222 22.5356 106.138 23.1345 105.97 23.669C105.802 24.1936 105.579 24.6588 105.302 25.0647C105.025 25.4606 104.703 25.8021 104.337 26.0892C103.97 26.3664 103.584 26.594 103.179 26.7722C102.783 26.9504 102.377 27.084 101.961 27.1731C101.555 27.2523 101.169 27.2919 100.803 27.2919H90.3499V23.4314H100.773C101.298 23.4314 101.694 23.2978 101.961 23.0305C102.228 22.7633 102.362 22.3772 102.362 21.8724C102.312 20.8429 101.793 20.3282 100.803 20.3282H94.8191C93.9679 20.3282 93.2453 20.1797 92.6513 19.8828C92.0574 19.5858 91.5724 19.2146 91.1963 18.7692C90.83 18.3237 90.5627 17.8437 90.3945 17.3289C90.2361 16.8142 90.1569 16.3341 90.1569 15.8887C90.1569 15.0275 90.3103 14.3049 90.6172 13.7209C90.924 13.127 91.3101 12.6469 91.7753 12.2807C92.2406 11.9144 92.7454 11.6521 93.2898 11.4937C93.8342 11.3254 94.344 11.2413 94.8191 11.2413H104.307V15.1018H94.8488C94.6509 15.1018 94.4925 15.1265 94.3737 15.176C94.2648 15.2156 94.1807 15.275 94.1213 15.3542C94.0718 15.4235 94.0421 15.5026 94.0322 15.5917C94.0223 15.6709 94.0174 15.7501 94.0174 15.8293C94.0272 15.9877 94.0569 16.1114 94.1064 16.2005C94.1559 16.2896 94.2153 16.3539 94.2846 16.3935C94.3638 16.4331 94.4479 16.4579 94.537 16.4678C94.636 16.4678 94.73 16.4678 94.8191 16.4678H100.803C101.793 16.4678 102.634 16.6459 103.327 17.0023C104.02 17.3586 104.579 17.809 105.005 18.3534C105.43 18.888 105.737 19.472 105.925 20.1055C106.123 20.739 106.222 21.328 106.222 21.8724Z" fill="#333333"/>
<path d="M123.268 15.1018H116.527V27.2919H112.622V15.1018H107.603V11.2413H112.622V6H116.527V11.2413H123.268V15.1018Z" fill="#333333"/>
<path d="M143.208 21.8724C143.208 22.5356 143.124 23.1345 142.956 23.669C142.788 24.1936 142.565 24.6588 142.288 25.0647C142.011 25.4606 141.689 25.8021 141.323 26.0892C140.956 26.3664 140.57 26.594 140.165 26.7722C139.769 26.9504 139.363 27.084 138.947 27.1731C138.541 27.2523 138.155 27.2919 137.789 27.2919H130.825C130.291 27.2919 129.707 27.1978 129.073 27.0098C128.44 26.8217 127.851 26.5148 127.306 26.0892C126.772 25.6537 126.321 25.0944 125.955 24.4114C125.599 23.7185 125.421 22.8722 125.421 21.8724V16.6459C125.421 15.6561 125.599 14.8196 125.955 14.1366C126.321 13.4437 126.772 12.8845 127.306 12.4588C127.851 12.0233 128.44 11.7115 129.073 11.5234C129.707 11.3353 130.291 11.2413 130.825 11.2413H137.789C138.779 11.2413 139.62 11.4195 140.313 11.7758C141.006 12.1322 141.565 12.5826 141.991 13.127C142.417 13.6615 142.723 14.2455 142.911 14.879C143.109 15.5125 143.208 16.1015 143.208 16.6459V21.8724ZM139.348 16.6756C139.348 16.1411 139.214 15.7452 138.947 15.4878C138.68 15.2304 138.294 15.1018 137.789 15.1018H130.855C130.34 15.1018 129.949 15.2354 129.682 15.5026C129.415 15.76 129.281 16.1411 129.281 16.6459V21.8724C129.281 22.3772 129.415 22.7633 129.682 23.0305C129.949 23.2978 130.34 23.4314 130.855 23.4314H137.789C138.314 23.4314 138.705 23.2978 138.962 23.0305C139.219 22.7633 139.348 22.3772 139.348 21.8724V16.6756Z" fill="#333333"/>
<path d="M160.551 15.1018H151.865C151.34 15.1018 150.944 15.2354 150.677 15.5026C150.41 15.76 150.276 16.1411 150.276 16.6459V27.2919H146.416V16.6459C146.416 15.9827 146.5 15.3888 146.668 14.8642C146.836 14.3396 147.059 13.8793 147.336 13.4833C147.623 13.0775 147.95 12.736 148.316 12.4588C148.682 12.1718 149.063 11.9392 149.459 11.761C149.865 11.5828 150.271 11.4541 150.677 11.3749C151.093 11.2858 151.479 11.2413 151.835 11.2413H160.551V15.1018Z" fill="#333333"/>
<path d="M180.313 16.5568C180.313 17.0914 180.219 17.6704 180.031 18.2941C179.843 18.9078 179.536 19.4819 179.111 20.0164C178.695 20.541 178.145 20.9815 177.462 21.3379C176.789 21.6942 175.968 21.8724 174.998 21.8724H168.034V18.205H174.998C175.522 18.205 175.928 18.0466 176.215 17.7298C176.502 17.4032 176.646 17.0023 176.646 16.5272C176.646 16.0223 176.483 15.6264 176.156 15.3393C175.839 15.0523 175.453 14.9087 174.998 14.9087H168.034C167.509 14.9087 167.104 15.0721 166.817 15.3987C166.53 15.7155 166.386 16.1114 166.386 16.5865V21.9763C166.386 22.4911 166.544 22.8919 166.861 23.179C167.188 23.4661 167.589 23.6096 168.064 23.6096H174.998V27.2919H168.034C167.5 27.2919 166.92 27.1978 166.297 27.0098C165.683 26.8217 165.109 26.5198 164.575 26.104C164.05 25.6784 163.609 25.129 163.253 24.4559C162.897 23.7729 162.719 22.9464 162.719 21.9763V16.5568C162.719 16.0223 162.813 15.4482 163.001 14.8345C163.189 14.2109 163.491 13.6368 163.906 13.1121C164.332 12.5776 164.881 12.1322 165.554 11.7758C166.237 11.4195 167.064 11.2413 168.034 11.2413H174.998C175.532 11.2413 176.106 11.3353 176.72 11.5234C177.344 11.7115 177.918 12.0183 178.442 12.444C178.977 12.8597 179.422 13.4091 179.779 14.0921C180.135 14.7652 180.313 15.5868 180.313 16.5568Z" fill="#333333"/>
<path d="M64.277 22.6148C64.277 23.0899 64.1929 23.5997 64.0246 24.1441C63.8662 24.6885 63.599 25.1934 63.2228 25.6586C62.8566 26.1238 62.3765 26.5148 61.7826 26.8316C61.1887 27.1384 60.4611 27.2919 59.5999 27.2919H44.9451C44.6679 27.2919 44.4105 27.2424 44.173 27.1434C43.9354 27.0444 43.7275 26.9108 43.5494 26.7425C43.3811 26.5643 43.2475 26.3565 43.1485 26.1189C43.0495 25.8813 43 25.624 43 25.3468V7.94507C43 7.67781 43.0495 7.4254 43.1485 7.18783C43.2475 6.95026 43.3811 6.74239 43.5494 6.56422C43.7275 6.38605 43.9354 6.24746 44.173 6.14848C44.4105 6.04949 44.6679 6 44.9451 6H57.8627C58.3379 6 58.8476 6.08414 59.3921 6.25241C59.9365 6.42069 60.4413 6.6929 60.9066 7.06905C61.3817 7.4353 61.7727 7.91538 62.0795 8.50929C62.3963 9.10321 62.5547 9.83076 62.5547 10.6919V11.4195C62.5547 12.1025 62.4408 12.8399 62.2132 13.6318C61.9855 14.4138 61.6193 15.1562 61.1144 15.859C61.55 16.1263 61.9558 16.448 62.332 16.8241C62.718 17.2003 63.0546 17.6358 63.3416 18.1307C63.6287 18.6257 63.8563 19.1849 64.0246 19.8085C64.1929 20.4321 64.277 21.1201 64.277 21.8724V22.6148ZM60.4166 21.8724C60.4166 21.3676 60.3374 20.9172 60.179 20.5212C60.0206 20.1154 59.7979 19.7689 59.5109 19.4819C59.2238 19.1948 58.8773 18.9771 58.4715 18.8286C58.0657 18.6702 57.6103 18.591 57.1055 18.591H48.4046V14.7009H55.3683C55.8731 14.7009 56.3285 14.6266 56.7343 14.4781C57.1401 14.3198 57.4866 14.097 57.7737 13.81C58.0607 13.5229 58.2785 13.1814 58.427 12.7855C58.5853 12.3796 58.6645 11.9243 58.6645 11.4195V10.6919C58.6645 10.1376 58.3973 9.86045 57.8627 9.86045H46.8605V23.4314H59.5999C59.6692 23.4314 59.7534 23.4265 59.8524 23.4166C59.9513 23.4067 60.0404 23.377 60.1196 23.3275C60.1988 23.278 60.2681 23.1939 60.3275 23.0751C60.3869 22.9563 60.4166 22.793 60.4166 22.5851V21.8724Z" stroke="black" stroke-width="2" mask="url(#path-1-inside-1_604_41)"/>
<path d="M76.9274 13.6021L83.4308 6H88.7018L79.5407 16.6756L88.6424 27.2919H83.4011L76.9274 19.7491L70.4834 27.2919H65.2273L74.3142 16.6756L65.1976 6H70.4241L76.9274 13.6021Z" stroke="black" stroke-width="2" mask="url(#path-1-inside-1_604_41)"/>
<path d="M106.222 21.8724C106.222 22.5356 106.138 23.1345 105.97 23.669C105.802 24.1936 105.579 24.6588 105.302 25.0647C105.025 25.4606 104.703 25.8021 104.337 26.0892C103.97 26.3664 103.584 26.594 103.179 26.7722C102.783 26.9504 102.377 27.084 101.961 27.1731C101.555 27.2523 101.169 27.2919 100.803 27.2919H90.3499V23.4314H100.773C101.298 23.4314 101.694 23.2978 101.961 23.0305C102.228 22.7633 102.362 22.3772 102.362 21.8724C102.312 20.8429 101.793 20.3282 100.803 20.3282H94.8191C93.9679 20.3282 93.2453 20.1797 92.6513 19.8828C92.0574 19.5858 91.5724 19.2146 91.1963 18.7692C90.83 18.3237 90.5627 17.8437 90.3945 17.3289C90.2361 16.8142 90.1569 16.3341 90.1569 15.8887C90.1569 15.0275 90.3103 14.3049 90.6172 13.7209C90.924 13.127 91.3101 12.6469 91.7753 12.2807C92.2406 11.9144 92.7454 11.6521 93.2898 11.4937C93.8342 11.3254 94.344 11.2413 94.8191 11.2413H104.307V15.1018H94.8488C94.6509 15.1018 94.4925 15.1265 94.3737 15.176C94.2648 15.2156 94.1807 15.275 94.1213 15.3542C94.0718 15.4235 94.0421 15.5026 94.0322 15.5917C94.0223 15.6709 94.0174 15.7501 94.0174 15.8293C94.0272 15.9877 94.0569 16.1114 94.1064 16.2005C94.1559 16.2896 94.2153 16.3539 94.2846 16.3935C94.3638 16.4331 94.4479 16.4579 94.537 16.4678C94.636 16.4678 94.73 16.4678 94.8191 16.4678H100.803C101.793 16.4678 102.634 16.6459 103.327 17.0023C104.02 17.3586 104.579 17.809 105.005 18.3534C105.43 18.888 105.737 19.472 105.925 20.1055C106.123 20.739 106.222 21.328 106.222 21.8724Z" stroke="black" stroke-width="2" mask="url(#path-1-inside-1_604_41)"/>
<path d="M123.268 15.1018H116.527V27.2919H112.622V15.1018H107.603V11.2413H112.622V6H116.527V11.2413H123.268V15.1018Z" stroke="black" stroke-width="2" mask="url(#path-1-inside-1_604_41)"/>
<path d="M143.208 21.8724C143.208 22.5356 143.124 23.1345 142.956 23.669C142.788 24.1936 142.565 24.6588 142.288 25.0647C142.011 25.4606 141.689 25.8021 141.323 26.0892C140.956 26.3664 140.57 26.594 140.165 26.7722C139.769 26.9504 139.363 27.084 138.947 27.1731C138.541 27.2523 138.155 27.2919 137.789 27.2919H130.825C130.291 27.2919 129.707 27.1978 129.073 27.0098C128.44 26.8217 127.851 26.5148 127.306 26.0892C126.772 25.6537 126.321 25.0944 125.955 24.4114C125.599 23.7185 125.421 22.8722 125.421 21.8724V16.6459C125.421 15.6561 125.599 14.8196 125.955 14.1366C126.321 13.4437 126.772 12.8845 127.306 12.4588C127.851 12.0233 128.44 11.7115 129.073 11.5234C129.707 11.3353 130.291 11.2413 130.825 11.2413H137.789C138.779 11.2413 139.62 11.4195 140.313 11.7758C141.006 12.1322 141.565 12.5826 141.991 13.127C142.417 13.6615 142.723 14.2455 142.911 14.879C143.109 15.5125 143.208 16.1015 143.208 16.6459V21.8724ZM139.348 16.6756C139.348 16.1411 139.214 15.7452 138.947 15.4878C138.68 15.2304 138.294 15.1018 137.789 15.1018H130.855C130.34 15.1018 129.949 15.2354 129.682 15.5026C129.415 15.76 129.281 16.1411 129.281 16.6459V21.8724C129.281 22.3772 129.415 22.7633 129.682 23.0305C129.949 23.2978 130.34 23.4314 130.855 23.4314H137.789C138.314 23.4314 138.705 23.2978 138.962 23.0305C139.219 22.7633 139.348 22.3772 139.348 21.8724V16.6756Z" stroke="black" stroke-width="2" mask="url(#path-1-inside-1_604_41)"/>
<path d="M160.551 15.1018H151.865C151.34 15.1018 150.944 15.2354 150.677 15.5026C150.41 15.76 150.276 16.1411 150.276 16.6459V27.2919H146.416V16.6459C146.416 15.9827 146.5 15.3888 146.668 14.8642C146.836 14.3396 147.059 13.8793 147.336 13.4833C147.623 13.0775 147.95 12.736 148.316 12.4588C148.682 12.1718 149.063 11.9392 149.459 11.761C149.865 11.5828 150.271 11.4541 150.677 11.3749C151.093 11.2858 151.479 11.2413 151.835 11.2413H160.551V15.1018Z" stroke="black" stroke-width="2" mask="url(#path-1-inside-1_604_41)"/>
<path d="M180.313 16.5568C180.313 17.0914 180.219 17.6704 180.031 18.2941C179.843 18.9078 179.536 19.4819 179.111 20.0164C178.695 20.541 178.145 20.9815 177.462 21.3379C176.789 21.6942 175.968 21.8724 174.998 21.8724H168.034V18.205H174.998C175.522 18.205 175.928 18.0466 176.215 17.7298C176.502 17.4032 176.646 17.0023 176.646 16.5272C176.646 16.0223 176.483 15.6264 176.156 15.3393C175.839 15.0523 175.453 14.9087 174.998 14.9087H168.034C167.509 14.9087 167.104 15.0721 166.817 15.3987C166.53 15.7155 166.386 16.1114 166.386 16.5865V21.9763C166.386 22.4911 166.544 22.8919 166.861 23.179C167.188 23.4661 167.589 23.6096 168.064 23.6096H174.998V27.2919H168.034C167.5 27.2919 166.92 27.1978 166.297 27.0098C165.683 26.8217 165.109 26.5198 164.575 26.104C164.05 25.6784 163.609 25.129 163.253 24.4559C162.897 23.7729 162.719 22.9464 162.719 21.9763V16.5568C162.719 16.0223 162.813 15.4482 163.001 14.8345C163.189 14.2109 163.491 13.6368 163.906 13.1121C164.332 12.5776 164.881 12.1322 165.554 11.7758C166.237 11.4195 167.064 11.2413 168.034 11.2413H174.998C175.532 11.2413 176.106 11.3353 176.72 11.5234C177.344 11.7115 177.918 12.0183 178.442 12.444C178.977 12.8597 179.422 13.4091 179.779 14.0921C180.135 14.7652 180.313 15.5868 180.313 16.5568Z" stroke="black" stroke-width="2" mask="url(#path-1-inside-1_604_41)"/>
</g>
<path d="M180.773 26.0767C180.773 26.2437 180.739 26.4015 180.671 26.55C180.609 26.6922 180.523 26.8191 180.411 26.9304C180.306 27.0356 180.179 27.1191 180.031 27.181C179.888 27.2429 179.737 27.2738 179.576 27.2738C179.409 27.2738 179.251 27.2429 179.103 27.181C178.96 27.1191 178.834 27.0356 178.722 26.9304C178.617 26.8191 178.534 26.6922 178.472 26.55C178.41 26.4015 178.379 26.2437 178.379 26.0767C178.379 25.9158 178.41 25.7643 178.472 25.622C178.534 25.4735 178.617 25.3467 178.722 25.2415C178.834 25.1301 178.96 25.0435 179.103 24.9816C179.251 24.9136 179.409 24.8796 179.576 24.8796C179.737 24.8796 179.888 24.9136 180.031 24.9816C180.179 25.0435 180.306 25.1301 180.411 25.2415C180.523 25.3467 180.609 25.4735 180.671 25.622C180.739 25.7643 180.773 25.9158 180.773 26.0767Z" fill="#BDBDBD"/>
<path d="M191.436 19.6735H186.007C185.679 19.6735 185.432 19.757 185.265 19.9241C185.098 20.0849 185.014 20.3231 185.014 20.6386V27.2923H182.601V20.6386C182.601 20.2241 182.654 19.8529 182.759 19.525C182.864 19.1972 183.003 18.9095 183.177 18.662C183.356 18.4084 183.56 18.1949 183.789 18.0217C184.018 17.8423 184.256 17.6969 184.504 17.5855C184.757 17.4742 185.011 17.3938 185.265 17.3443C185.524 17.2886 185.766 17.2607 185.988 17.2607H191.436V19.6735Z" fill="#BDBDBD"/>
<path d="M204.001 26.0767C204.001 26.2499 203.97 26.4108 203.908 26.5592C203.846 26.7077 203.76 26.8376 203.648 26.949C203.543 27.0542 203.416 27.1377 203.268 27.1995C203.125 27.2614 202.971 27.2923 202.804 27.2923H197.347C197.05 27.2923 196.732 27.2583 196.391 27.1903C196.057 27.1222 195.726 27.014 195.398 26.8655C195.07 26.7108 194.752 26.519 194.442 26.2901C194.139 26.055 193.873 25.7735 193.644 25.4456C193.415 25.1116 193.23 24.728 193.088 24.2949C192.951 23.8619 192.883 23.3731 192.883 22.8287V17.2607H195.296V22.8287C195.296 23.1442 195.349 23.4288 195.454 23.6825C195.565 23.9299 195.714 24.1434 195.899 24.3228C196.085 24.5022 196.302 24.6414 196.549 24.7404C196.803 24.8332 197.075 24.8796 197.366 24.8796H201.588V17.2607H204.001V26.0767Z" fill="#BDBDBD"/>
</g>
<rect x="1.5" y="1.5" width="36" height="32" rx="5.5" fill="white" stroke="black" stroke-width="3"/>
<circle cx="20" cy="17" r="7" fill="#BDBDBD"/>
<defs>
<filter id="filter0_d_604_41" x="39" y="6" width="169.001" height="29.292" filterUnits="userSpaceOnUse" color-interpolation-filters="sRGB">
<feFlood flood-opacity="0" result="BackgroundImageFix"/>
<feColorMatrix in="SourceAlpha" type="matrix" values="0 0 0 0 0 0 0 0 0 0 0 0 0 0 0 0 0 0 127 0" result="hardAlpha"/>
<feOffset dy="4"/>
<feGaussianBlur stdDeviation="2"/>
<feComposite in2="hardAlpha" operator="out"/>
<feColorMatrix type="matrix" values="0 0 0 0 0 0 0 0 0 0 0 0 0 0 0 0 0 0 0.25 0"/>
<feBlend mode="normal" in2="BackgroundImageFix" result="effect1_dropShadow_604_41"/>
<feBlend mode="normal" in="SourceGraphic" in2="effect1_dropShadow_604_41" result="shape"/>
</filter>
<filter id="filter1_di_604_41" x="39" y="6" width="145.313" height="29.292" filterUnits="userSpaceOnUse" color-interpolation-filters="sRGB">
<feFlood flood-opacity="0" result="BackgroundImageFix"/>
<feColorMatrix in="SourceAlpha" type="matrix" values="0 0 0 0 0 0 0 0 0 0 0 0 0 0 0 0 0 0 127 0" result="hardAlpha"/>
<feOffset dy="4"/>
<feGaussianBlur stdDeviation="2"/>
<feComposite in2="hardAlpha" operator="out"/>
<feColorMatrix type="matrix" values="0 0 0 0 0 0 0 0 0 0 0 0 0 0 0 0 0 0 0.25 0"/>
<feBlend mode="normal" in2="BackgroundImageFix" result="effect1_dropShadow_604_41"/>
<feBlend mode="normal" in="SourceGraphic" in2="effect1_dropShadow_604_41" result="shape"/>
<feColorMatrix in="SourceAlpha" type="matrix" values="0 0 0 0 0 0 0 0 0 0 0 0 0 0 0 0 0 0 127 0" result="hardAlpha"/>
<feOffset dy="4"/>
<feGaussianBlur stdDeviation="2"/>
<feComposite in2="hardAlpha" operator="arithmetic" k2="-1" k3="1"/>
<feColorMatrix type="matrix" values="0 0 0 0 0 0 0 0 0 0 0 0 0 0 0 0 0 0 0.25 0"/>
<feBlend mode="normal" in2="shape" result="effect2_innerShadow_604_41"/>
</filter>
<clipPath id="clip0_604_41">
<rect width="161.001" height="21.2923" fill="white" transform="translate(43 6)"/>
</clipPath>
</defs>
</svg>
